# xmcd
#
# Track frame offsets: 
#        150
#        21855
#        39004
#        59271
#        81988
#        106027
#        131535
#        147816
#        162976
#        180497
#        191146
#        212455
#        226156
#        240065
#        260496
#        290842
#        311034
#        326152
#
# Disc length: 4727 seconds
#
# Revision: 0
# Processed by: cddbd v1.5.2PL0 Copyright (c) Steve Scherf et al.
# Submitted via: ExactAudioCopyFreeDBPlugin 1.0
#
DISCID=f2127512
DTITLE=Amy Ray - The Tender Hour - Live From Seattle
DYEAR=2015
DGENRE=Country
TTITLE0=The Gig That Matters
TTITLE1=Hunter's Prayer
TTITLE2=Oyster and Pearl
TTITLE3=My Dog
TTITLE4=Bird In The Hand
TTITLE5=Goodnight Tender
TTITLE6=Broken Record
TTITLE7=Anyhow
TTITLE8=More Pills
TTITLE9=Johnny Rottentail
TTITLE10=Lung of Love
TTITLE11=When You're Gone, You're Gone
TTITLE12=Duane Allman
TTITLE13=Time Zone
TTITLE14=The Rise of the Black Messiah
TTITLE15=Let the Spirit
TTITLE16=The Rock Is My Foundation
TTITLE17=Night Moves
EXTD=
EXTT0=
EXTT1=
EXTT2=
EXTT3=
EXTT4=
EXTT5=
EXTT6=
EXTT7=
EXTT8=
EXTT9=
EXTT10=
EXTT11=
EXTT12=
EXTT13=
EXTT14=
EXTT15=
EXTT16=
EXTT17=
PLAYORDER=
